# xmcd
#
# Track frame offsets: 
#        150
#        15938
#        37663
#        56783
#        80213
#        104010
#        119703
#        151900
#        184213
#        206848
#        237078
#
# Disc length: 3468 seconds
#
# Revision: 6
# Processed by: cddbd v1.5.2PL0 Copyright (c) Steve Scherf et al.
# Submitted via: ExactAudioCopy v1.0b3
#
DISCID=920d8a0b
DTITLE=Shirley Horn - May The Music Never End
DYEAR=2003
DGENRE=Jazz
TTITLE0=Forget Me
TTITLE1=If You Go Away
TTITLE2=Yesterday
TTITLE3=Take Love Easy
TTITLE4=Never Let Me Go
TTITLE5=Watch What Happens
TTITLE6=Ill Wind
TTITLE7=Maybe September
TTITLE8=Everything Must Change
TTITLE9=This Is All I Ask
TTITLE10=May The Music Never End
EXTD=YEAR: 2003
EXTT0=
EXTT1=
EXTT2=
EXTT3=
EXTT4=
EXTT5=
EXTT6=
EXTT7=
EXTT8=
EXTT9=
EXTT10=
PLAYORDER=
